<svg width="380" height="218" xmlns="http://www.w3.org/2000/svg">
 <g id="Layer_1">
  <title>Layer 1</title>
  <text font-style="normal" font-weight="normal" xml:space="preserve" text-anchor="start" font-family="'Montserrat Light'" font-size="175" id="svg_1" y="204.5" x="4" stroke-width="0" stroke="#000" fill="#000000">G</text>
  <text font-style="normal" font-weight="normal" xml:space="preserve" text-anchor="start" font-family="'Montserrat Light'" font-size="172" id="svg_3" y="204.5" x="265" stroke-width="0" stroke="#000" fill="#000000">T</text>
  <path stroke="#000" id="svg_4" d="m162.45702,209.82901c-6.32061,0.19419 -15.16256,-2.48183 -8.69992,-9.06356c7.03606,-2.50568 -1.25055,-10.81073 5.80079,-14.72288c5.65991,-7.28118 13.35197,-13.93037 15.67326,-22.82203c-0.36049,-6.03033 -8.32787,-9.59915 -4.52674,-16.27385c-3.72922,-10.68117 -2.86738,-22.97529 3.94007,-32.57677c5.78044,-8.91784 12.7986,-18.36698 12.05843,-29.15879c-7.24979,2.73512 -14.92377,5.13148 -22.90252,3.88937c-7.50115,-0.6294 -14.22858,4.85819 -21.88008,1.87437c-7.75614,-1.45584 -12.36959,-10.82523 -6.58658,-16.30223c6.31973,-4.87701 15.60501,-5.03396 21.63214,-10.47682c7.95212,-5.95138 15.30743,-14.0009 26.26745,-15.05302c4.84409,-1.00195 6.92177,-5.39963 9.60318,-8.69531c2.22831,5.227 6.10393,9.84904 11.93702,12.16629c11.8616,6.20732 14.81429,19.33035 19.18852,30.11815c3.23426,8.44864 5.9288,17.26964 11.34472,24.81218c0.05757,3.61992 -6.02167,5.14996 -1.91557,9.39365c2.13549,11.50953 2.22742,23.29536 2.03811,34.93939c-3.60166,5.69826 -6.88233,12.05833 -2.07783,18.59783c3.20929,7.99307 11.2019,13.23543 15.13419,20.7781c2.22283,3.90559 -4.33346,9.57578 3.83517,8.59356c7.45988,3.5657 1.43625,12.26937 -5.98318,9.73731c-27.80455,0.63877 -55.67036,1.27663 -83.47189,0.51955l-0.40874,-0.2745z" stroke-width="0" fill="#000000"/>
 </g>
</svg>