<svg width="300" height="150" xmlns="http://www.w3.org/2000/svg">
 <g id="Layer_1">
  <title>Layer 1</title>
  <text font-style="normal" font-weight="normal" xml:space="preserve" text-anchor="start" font-family="'Montserrat Light'" font-size="110" id="svg_1" y="115.5" x="5" stroke-width="0" stroke="#000" fill="#000000">G</text>
  <text font-style="normal" font-weight="normal" xml:space="preserve" text-anchor="start" font-family="'Montserrat Light'" font-size="110" id="svg_3" y="115.5" x="225" stroke-width="0" stroke="#000" fill="#000000">T</text>
  <path id="svg_4" d="m134.29243,134.1986c-4.52206,0.1405 -11.14045,-1.99428 -6.51676,-6.75634c5.03393,-1.81294 -0.8947,-7.82188 4.15016,-10.65244c4.04936,-5.26815 9.55262,-10.07903 11.21339,-16.51241c-0.25791,-4.36312 -5.95816,-6.94527 -3.23864,-11.77461c-2.66807,-7.72815 -2.05146,-16.6233 2.8189,-23.57026c4.1356,-6.45232 9.15672,-13.28904 8.62717,-21.09724c-5.18684,1.97894 -10.67717,3.71278 -16.38554,2.81407c-5.36668,-0.45538 -10.17981,3.51504 -15.65404,1.35616c-5.54911,-1.05334 -8.84979,-7.83237 -4.71235,-11.79514c4.52143,-3.52866 11.16456,-3.64222 15.47665,-7.5803c5.68932,-4.30599 10.95167,-10.13006 18.79297,-10.89129c3.46568,-0.72494 4.95216,-3.90679 6.87057,-6.29131c1.59424,3.78189 4.36704,7.12607 8.54031,8.80266c8.48635,4.49118 10.59884,13.98608 13.72837,21.79137c2.31394,6.11284 4.24173,12.49509 8.11654,17.95234c0.0412,2.61912 -4.30819,3.72615 -1.37049,6.79658c1.52783,8.32748 1.5936,16.85488 1.45816,25.27968c-2.5768,4.12285 -4.92393,8.72455 -1.48657,13.45607c2.29607,5.78323 8.01436,9.57623 10.8277,15.03357c1.59032,2.82581 -3.10036,6.92836 2.74387,6.21769c5.33715,2.57988 1.02756,8.87725 -4.28066,7.04523c-19.89269,0.46217 -39.82919,0.92368 -59.71973,0.3759l0,-0.00001z" stroke-width="0" stroke="#000" fill="#000000"/>
 </g>
</svg>